<?xml version="1.0" standalone="no"?>
<!DOCTYPE svg PUBLIC "-//W3C//DTD SVG 20010904//EN"
 "http://www.w3.org/TR/2001/REC-SVG-20010904/DTD/svg10.dtd">
<svg version="1.0" xmlns="http://www.w3.org/2000/svg"
 width="225.000000pt" height="225.000000pt" viewBox="0 0 225.000000 225.000000"
 preserveAspectRatio="xMidYMid meet">
<metadata>
Created by potrace 1.14, written by Peter Selinger 2001-2017
</metadata>
<g transform="translate(0.000000,225.000000) scale(0.100000,-0.100000)"
fill="#000000" stroke="none">
<path d="M1781 2212 c-42 -7 -301 -101 -378 -137 -41 -19 -77 -35 -79 -35 -3
0 -49 -31 -269 -180 -22 -15 -87 -52 -145 -82 -139 -72 -171 -91 -188 -105 -7
-7 -16 -13 -20 -13 -4 0 -19 -10 -34 -23 -15 -12 -46 -38 -70 -57 -45 -36
-185 -175 -228 -225 -140 -166 -228 -313 -237 -396 -4 -42 -2 -50 24 -75 50
-50 58 -77 40 -126 -66 -182 -88 -308 -74 -415 5 -35 13 -63 18 -63 5 0 9 -8
9 -17 0 -34 47 -118 84 -151 78 -70 240 -74 424 -11 87 30 128 47 147 62 6 4
28 20 51 35 59 39 79 55 88 69 9 17 1 17 -16 0 -32 -30 -199 -98 -279 -113
-114 -22 -231 -16 -285 15 -68 38 -93 113 -74 221 15 88 15 88 23 96 4 4 7 15
7 23 0 34 99 246 198 426 80 146 318 492 330 480 4 -3 7 -18 8 -33 1 -15 2
-33 3 -39 1 -10 63 -13 276 -13 151 0 275 -2 275 -5 0 -5 -111 -120 -457 -473
l-153 -156 0 -150 c0 -83 4 -157 8 -163 6 -10 152 -12 652 -10 l645 2 0 170 0
170 -342 5 -342 5 210 215 c116 118 260 265 321 327 l110 112 0 138 c0 76 -1
143 -1 150 -1 9 -114 12 -486 11 -266 -1 -487 1 -491 5 -7 6 56 70 115 115 19
15 45 36 57 47 98 89 324 223 439 260 33 11 62 22 65 25 10 10 46 13 140 14
84 0 100 -3 140 -26 78 -45 106 -147 76 -284 -7 -33 -16 -66 -20 -72 -3 -6 -2
-13 3 -16 17 -11 65 257 58 323 -6 52 -38 88 -112 125 -43 21 -62 24 -145 23
-52 0 -106 -2 -119 -5z"/>
</g>
</svg>
